<svg xmlns="http://www.w3.org/2000/svg" width="19.5" height="19.5" viewBox="0 0 19.5 19.5">
  <g id="Icon_feather-settings" data-name="Icon feather-settings" transform="translate(0.75 0.75)">
    <path id="Path_10" data-name="Path 10" d="M19.487,16.494A2.994,2.994,0,1,1,16.494,13.5,2.994,2.994,0,0,1,19.487,16.494Z" transform="translate(-7.494 -7.494)" fill="none" stroke="#92929d" stroke-linecap="round" stroke-linejoin="round" stroke-width="1.5"/>
    <path id="Path_11" data-name="Path 11" d="M16.555,12.955a1.35,1.35,0,0,0,.27,1.489l.049.049a1.637,1.637,0,1,1-2.315,2.315l-.049-.049a1.361,1.361,0,0,0-2.307.965v.139a1.636,1.636,0,1,1-3.273,0V17.79a1.35,1.35,0,0,0-.884-1.235,1.35,1.35,0,0,0-1.489.27l-.049.049a1.637,1.637,0,1,1-2.315-2.315l.049-.049A1.361,1.361,0,0,0,3.275,12.2H3.136a1.636,1.636,0,1,1,0-3.273H3.21a1.35,1.35,0,0,0,1.235-.884,1.35,1.35,0,0,0-.27-1.489l-.049-.049A1.637,1.637,0,1,1,6.442,4.192l.049.049a1.35,1.35,0,0,0,1.489.27h.065a1.35,1.35,0,0,0,.818-1.235V3.136a1.636,1.636,0,1,1,3.273,0V3.21a1.361,1.361,0,0,0,2.307.965l.049-.049a1.637,1.637,0,1,1,2.315,2.315l-.049.049a1.35,1.35,0,0,0-.27,1.489v.065a1.35,1.35,0,0,0,1.235.818h.139a1.636,1.636,0,1,1,0,3.273H17.79a1.35,1.35,0,0,0-1.235.818Z" transform="translate(-1.5 -1.5)" fill="none" stroke="#92929d" stroke-linecap="round" stroke-linejoin="round" stroke-width="1.5"/>
  </g>
</svg>
